HIERARCHY
ROOT Hips
{
	OFFSET 0.00000 0.00000 0.00000
	CHANNELS 6 Xposition Yposition Zposition Zrotation Yrotation Xrotation 
	JOINT LHipJoint
	{
		OFFSET 0 0 0
		CHANNELS 3 Zrotation Yrotation Xrotation
		JOINT LeftHip
		{
			OFFSET 1.56857 -1.73443 1.15205
			CHANNELS 3 Zrotation Yrotation Xrotation
			JOINT LeftKnee
			{
				OFFSET 2.39362 -6.57643 0.00000
				CHANNELS 3 Zrotation Yrotation Xrotation
				JOINT LeftAnkle
				{
					OFFSET 2.50952 -6.89485 0.00000
					CHANNELS 3 Zrotation Yrotation Xrotation
					JOINT LeftToe
					{
						OFFSET 0.17171 -0.47178 1.88682
						CHANNELS 3 Zrotation Yrotation Xrotation
						End Site
						{
							OFFSET 0.00000 -0.00000 0.98146
						}
					}
				}
			}
		}
	}
	JOINT RHipJoint
	{
		OFFSET 0 0 0
		CHANNELS 3 Zrotation Yrotation Xrotation
		JOINT RightHip
		{
			OFFSET -1.28153 -1.73443 1.15205
			CHANNELS 3 Zrotation Yrotation Xrotation
			JOINT RightKnee
			{
				OFFSET -2.26861 -6.23296 0.00000
				CHANNELS 3 Zrotation Yrotation Xrotation
				JOINT RightAnkle
				{
					OFFSET -2.54143 -6.98254 0.00000
					CHANNELS 3 Zrotation Yrotation Xrotation
					JOINT RightToe
					{
						OFFSET -0.23309 -0.64041 1.93119
						CHANNELS 3 Zrotation Yrotation Xrotation
						End Site
						{
							OFFSET -0.00000 -0.00000 1.02013
						}
					}
				}
			}
		}
	}
	JOINT lowerback
	{
		OFFSET 0 0 0
		CHANNELS 3 Zrotation Yrotation Xrotation
		JOINT Chest
		{
			OFFSET -0.07096 2.10460 -0.27878
			CHANNELS 3 Zrotation Yrotation Xrotation
			JOINT Chest2
			{
				OFFSET -0.00826 2.13662 -0.08279
				CHANNELS 3 Zrotation Yrotation Xrotation
				JOINT lowerneck
				{
					OFFSET 0 0 0
					CHANNELS 3 Zrotation Yrotation Xrotation
					JOINT Neck
					{
						OFFSET 0.03239 1.77799 0.24435
						CHANNELS 3 Zrotation Yrotation Xrotation
						JOINT Head
						{
							OFFSET 0.01026 1.74194 -0.49664
							CHANNELS 3 Zrotation Yrotation Xrotation
							End Site
							{
								OFFSET 0.00170 1.83057 -0.19653
							}
						}
					}
				}
				JOINT LeftCollar
				{
					OFFSET 0 0 0
					CHANNELS 3 Zrotation Yrotation Xrotation
					JOINT LeftShoulder
					{
						OFFSET 3.19178 1.35907 -0.31412
CHANNELS 3 Zrotation Xrotation Yrotation
						JOINT LeftElbow
						{
OFFSET 0 -4.852470 -0.000000
CHANNELS 3 Zrotation Xrotation Yrotation
							JOINT LeftWrist
							{
OFFSET 0 -3.555840 0.000000
CHANNELS 3 Zrotation Xrotation Yrotation
								JOINT lhand
								{
									OFFSET 0 0 0
CHANNELS 3 Zrotation Xrotation Yrotation
									JOINT LFingers
									{
OFFSET 0 -0.693200 0.000000
CHANNELS 3 Zrotation Xrotation Yrotation
										End Site
										{
OFFSET 0 -0.558880 0.000000
										}
									}
								}
								JOINT LThumb
								{
OFFSET 0 0.000000 0.000000
CHANNELS 3 Zrotation Xrotation Yrotation
									End Site
									{
OFFSET 0 -0.567410 0.567410
									}
								}
							}
						}
					}
				}
				JOINT RightCollar
				{
					OFFSET 0 0 0
					CHANNELS 3 Zrotation Yrotation Xrotation
					JOINT RightShoulder
					{
						OFFSET -3.28999 1.24191 -0.26899
CHANNELS 3 Zrotation Xrotation Yrotation
						JOINT RightElbow
						{
OFFSET 0 -4.644620 0.000000
CHANNELS 3 Zrotation Xrotation Yrotation
							JOINT RightWrist
							{
OFFSET 0 -3.407030 0.000000
CHANNELS 3 Zrotation Xrotation Yrotation
								JOINT rhand
								{
									OFFSET 0 0 0
CHANNELS 3 Zrotation Xrotation Yrotation
									JOINT RFingers
									{
OFFSET 0 -0.619580 0.000000
CHANNELS 3 Zrotation Xrotation Yrotation
										End Site
										{
OFFSET 0 -0.499520 0.000000
										}
									}
								}
								JOINT RThumb
								{
OFFSET 0 0.000000 0.000000
CHANNELS 3 Zrotation Xrotation Yrotation
									End Site
									{
OFFSET 0 -0.507150 0.507150
									}
								}
							}
						}
					}
				}
			}
		}
	}
}
MOTION
Frames: 11
Frame Time: 0.008333333333333333
45.897103 16.408366 6.720122 360.350806 145.222301 359.541209 0.000000 0.000000 0.000000 -25.860260 16.584957 -21.278728 2.638051 10.084064 29.249820 1.281626 10.259813 -27.332476 0.353349 3.818097 10.565654 0.000000 0.000000 0.000000 6.606055 -9.840950 9.038294 -2.522554 -9.875262 28.576740 0.185959 -18.289911 -24.272765 -3.770803 -11.842167 35.185087 -3.685101 4.917740 8.879674 -4.283431 6.652173 3.958646 -2.998079 3.516655 -0.724242 11.083209 9.061193 -22.460507 -14.079746 14.455972 24.836127 -4.534502 5.913782 14.205727 0.000000 0.000000 0.000000 11.189266 13.351118 -15.333656 12.638013 -20.751088 2.325887 17.805827 11.074683 24.551806 0.000000 0.000000 0.000000 -7.125000 0.000000 0.000000 -7.114605 4.516426 -6.584029 0.000000 0.000000 0.000000 -22.441956 -19.368801 65.566806 -45.497489 -51.009459 -22.624909 -9.050092 13.924160 23.777035 0.000000 0.000000 0.000000 7.125000 0.000000 0.000000 20.764636 52.807125 -4.131893
46.002155 16.544290 6.278233 362.379945 148.035486 360.994618 0.000000 0.000000 0.000000 -24.147308 15.560677 -17.784927 2.186623 9.243397 26.560351 1.341477 9.159035 -26.926457 0.245292 3.183546 8.790501 0.000000 0.000000 0.000000 9.344908 -8.467412 4.605808 -3.439055 -11.373310 33.550233 -0.191921 -13.056209 -20.743369 -3.301815 -11.164851 32.841748 -2.718258 4.670231 8.837261 -3.828680 6.319955 3.576922 -3.045137 3.327596 -1.062455 11.756901 9.295857 -22.789159 -13.992391 14.876824 26.094313 -4.542089 6.165988 14.943606 0.000000 0.000000 0.000000 13.581390 13.152453 -26.384678 20.118588 -30.766336 5.600791 17.184766 -0.968453 24.444191 0.000000 0.000000 0.000000 -7.125000 0.000000 0.000000 -7.489193 4.719780 -6.907022 0.000000 0.000000 0.000000 -23.895620 -19.522671 68.306328 -43.430563 -49.975955 -21.029953 -7.502427 14.271431 22.982911 0.000000 0.000000 0.000000 7.125000 0.000000 0.000000 21.814994 51.804842 -3.805753
46.095546 16.707618 5.860753 361.346538 152.730352 361.005589 0.000000 0.000000 0.000000 -25.668700 13.800600 -15.719100 1.904900 8.665100 24.753300 1.254300 9.007300 -26.171000 0.143000 2.437400 6.716200 0.000000 0.000000 0.000000 9.558757 -7.535479 0.879853 -3.778092 -11.859055 35.235291 -0.317592 -12.159561 -20.968950 -3.068416 -10.803145 31.620676 -4.345127 4.059050 8.770967 -3.733942 5.365648 3.349029 -1.969058 2.840122 -1.442908 11.091419 9.151380 -23.076394 -13.061724 14.666768 26.581714 -4.093569 6.110956 15.015049 0.000000 0.000000 0.000000 15.722218 11.814879 -32.180735 28.960010 -39.978033 10.737718 18.394757 -7.359259 23.265532 0.000000 0.000000 0.000000 -7.125000 0.000000 0.000000 -6.649948 5.742770 -5.992811 0.000000 0.000000 0.000000 -26.354464 -19.243884 69.653134 -42.804664 -49.646488 -20.551732 -6.436293 13.613183 22.353126 0.000000 0.000000 0.000000 7.125000 0.000000 0.000000 22.487107 51.048320 -3.501985
46.200212 16.860016 5.390075 359.864835 157.431464 360.211962 0.000000 0.000000 0.000000 -25.668700 13.800600 -15.719100 1.904900 8.665100 24.753300 1.254300 9.007300 -26.171000 0.143000 2.437400 6.716200 0.000000 0.000000 0.000000 8.977986 -6.915816 -1.204038 -3.589560 -11.592975 34.307076 -0.448579 -13.240713 -23.451159 -3.073937 -10.813011 31.652707 -6.092318 3.455035 8.716182 -3.905972 4.505566 3.553868 -1.083904 2.426995 -1.304078 11.140252 9.113354 -23.580578 -12.668364 14.459938 26.924966 -3.980038 6.050677 15.202977 0.000000 0.000000 0.000000 18.965280 9.176866 -36.279069 38.529423 -47.159868 17.357341 17.850019 -9.347222 24.821675 0.000000 0.000000 0.000000 -7.125000 0.000000 0.000000 -7.109190 4.234520 -6.616941 0.000000 0.000000 0.000000 -27.987708 -18.329414 69.009494 -42.909705 -49.702344 -20.631832 -6.813821 13.563035 22.697660 0.000000 0.000000 0.000000 7.125000 0.000000 0.000000 22.313724 51.427332 -3.687317
46.318204 16.992859 4.930881 358.665661 162.050008 360.104417 0.000000 0.000000 0.000000 -28.983282 9.697354 -3.165001 0.621779 5.001318 13.923533 1.046373 5.655893 -22.153160 0.083634 1.862298 5.125173 0.000000 0.000000 0.000000 8.533061 -6.170929 -4.145425 -3.302405 -11.169223 32.852726 -0.522697 -13.693366 -24.599887 -3.249323 -11.087965 32.577197 -7.782775 2.984381 8.335503 -4.100368 3.859420 3.648295 -0.261419 2.114615 -1.055150 10.832827 8.830069 -23.981765 -12.003822 13.964480 27.365212 -3.764491 5.878028 15.307558 0.000000 0.000000 0.000000 23.463067 5.354846 -40.360517 48.315924 -52.292273 24.835783 18.618139 -9.614495 25.041656 0.000000 0.000000 0.000000 -7.125000 0.000000 0.000000 -6.658266 3.888987 -6.234359 0.000000 0.000000 0.000000 -28.498001 -16.932666 66.019912 -43.070090 -49.787216 -20.754254 -6.934153 11.992276 22.658875 0.000000 0.000000 0.000000 7.125000 0.000000 0.000000 22.179921 51.411156 -3.654031
46.445586 17.065127 4.500899 358.413499 166.887225 360.953361 0.000000 0.000000 0.000000 -29.165183 7.659875 0.659684 0.366338 3.886017 10.756413 1.185380 1.748725 -21.242731 0.791739 5.484377 15.345133 0.000000 0.000000 0.000000 9.261276 -3.576543 -7.285456 -2.921976 -10.567265 30.834409 -0.776430 -12.546665 -25.506867 -2.042368 -8.934353 25.603641 -9.074929 2.371422 7.636901 -3.738098 3.037030 3.661702 0.941672 1.676836 -0.681934 9.836231 8.567985 -23.923906 -11.305828 13.816815 27.539323 -3.341672 5.821254 15.187546 0.000000 0.000000 0.000000 25.853070 0.009902 -40.560704 54.339354 -54.597709 29.677943 19.981790 -9.189437 27.531926 0.000000 0.000000 0.000000 -7.125000 0.000000 0.000000 -6.083729 1.107371 -5.999204 0.000000 0.000000 0.000000 -29.095132 -15.500776 62.050510 -43.811451 -50.172608 -21.322056 -6.832143 9.148005 23.707081 0.000000 0.000000 0.000000 7.125000 0.000000 0.000000 22.842793 52.360537 -4.322578
46.568874 17.081765 4.074705 357.979334 171.521833 361.270317 0.000000 0.000000 0.000000 -28.354105 8.482406 3.106315 0.255232 3.250402 8.976616 0.855458 -1.298756 -17.088577 0.007353 0.487469 1.339373 0.000000 0.000000 0.000000 9.279942 -1.522565 -10.083973 -2.609112 -10.033622 29.085725 -1.024296 -10.601391 -25.685569 -2.126674 -9.123970 26.184730 -10.030111 1.892263 7.711241 -3.670715 2.405641 3.881185 1.595950 1.362967 -0.464240 9.517914 8.486298 -24.224470 -11.071580 13.889571 27.978567 -3.168402 5.854507 15.409533 0.000000 0.000000 0.000000 29.694694 -4.830204 -40.956222 60.510845 -56.444364 34.766455 22.374827 -11.296750 27.652335 0.000000 0.000000 0.000000 -7.125000 0.000000 0.000000 -4.679036 0.530034 -4.650987 0.000000 0.000000 0.000000 -29.250394 -14.141142 57.742308 -44.493631 -50.517970 -21.847271 -7.593954 7.574745 24.860931 0.000000 0.000000 0.000000 7.125000 0.000000 0.000000 22.775805 53.554257 -4.993311
46.696476 17.080714 3.619648 357.185715 175.605337 361.285342 0.000000 0.000000 0.000000 -28.161875 8.584474 6.095747 0.170523 2.659095 7.331153 0.756971 -3.961432 -15.580174 0.092961 -1.965003 -5.409088 0.000000 0.000000 0.000000 8.644319 -0.195540 -12.428681 -2.203807 -9.277425 26.667684 -1.005074 -9.504230 -24.620262 -0.797965 -5.701640 15.921144 -11.533505 1.692319 8.060679 -3.549256 2.099020 4.157119 2.566688 1.213355 -0.360376 8.119591 9.027309 -24.266056 -10.177822 13.363128 28.370801 -2.825100 5.077038 15.335611 0.000000 0.000000 0.000000 32.711061 -9.587103 -40.168947 62.540423 -56.949772 36.462846 26.110787 -15.273208 28.030339 0.000000 0.000000 0.000000 -7.125000 0.000000 0.000000 -2.529539 -0.657857 -2.560572 0.000000 0.000000 0.000000 -29.538126 -12.803683 53.683424 -45.331469 -50.929802 -22.495859 -8.087725 5.759617 25.482498 0.000000 0.000000 0.000000 7.125000 0.000000 0.000000 22.670033 54.215659 -5.343683
46.812142 17.049032 3.160957 356.649885 179.312826 361.663890 0.000000 0.000000 0.000000 -28.118929 7.479382 9.003980 0.109800 2.135516 5.880444 0.644516 -6.138396 -14.327968 0.046556 -1.373216 -3.776646 0.000000 0.000000 0.000000 8.461758 0.354017 -14.726557 -1.731352 -8.281647 23.573343 -1.104398 -6.551994 -23.238312 -0.184276 -2.763995 7.622333 -12.231515 1.746521 8.363943 -3.717319 2.188885 4.330178 2.756532 1.285235 -0.352488 8.013126 9.245366 -24.539094 -9.868021 12.648687 28.775510 -2.922361 4.476354 15.465501 0.000000 0.000000 0.000000 34.952890 -12.987957 -39.719917 62.922151 -57.034966 36.783891 31.841542 -23.383540 26.234153 0.000000 0.000000 0.000000 -7.125000 0.000000 0.000000 1.147314 -0.128258 1.141909 0.000000 0.000000 0.000000 -29.283453 -11.495331 49.456402 -45.746047 -51.128716 -22.818168 -8.057585 4.946338 25.666510 0.000000 0.000000 0.000000 7.125000 0.000000 0.000000 22.811509 54.379100 -5.473000
46.919275 17.001842 2.643541 355.846513 182.014414 361.978629 0.000000 0.000000 0.000000 -28.141250 7.244372 11.895322 0.055821 1.524808 4.194048 0.612472 -6.984364 -14.051698 0.011948 -0.631193 -1.734706 0.000000 0.000000 0.000000 8.498497 -0.129432 -16.955287 -1.341884 -7.334025 20.708894 -1.123401 -3.163463 -21.397858 -0.008433 -0.593378 1.630579 -13.198511 3.037705 8.390778 -3.534028 2.246951 4.587933 3.461181 0.605491 -0.274689 7.673134 9.052868 -24.856572 -10.098693 12.599592 29.046943 -2.978213 4.360556 15.653639 0.000000 0.000000 0.000000 35.935688 -14.679772 -35.293460 58.861119 -55.998173 33.395347 31.433363 -20.948755 29.390198 0.000000 0.000000 0.000000 -7.125000 0.000000 0.000000 0.314448 -3.449003 0.332256 0.000000 0.000000 0.000000 -30.043054 -10.847057 46.891312 -46.225376 -51.354851 -23.191898 -9.057706 4.731405 26.506760 0.000000 0.000000 0.000000 7.125000 0.000000 0.000000 22.357544 55.342190 -5.890194
47.013429 16.953400 2.091451 355.234938 184.182030 362.417479 0.000000 0.000000 0.000000 -27.970514 6.897640 14.152553 0.044368 1.358950 3.737067 0.617492 -7.589378 -14.184957 0.150535 -2.490363 -6.863533 0.000000 0.000000 0.000000 9.484360 -0.906591 -19.385165 -1.247192 -7.080700 19.954639 -1.025237 0.536963 -18.973658 -0.027583 0.995597 -2.737501 -12.980641 3.162640 8.648516 -4.267605 2.301526 4.531780 2.556682 0.627033 -0.456441 7.275419 8.840809 -24.181010 -8.966438 12.110164 28.222008 -2.525857 4.376587 14.921823 0.000000 0.000000 0.000000 37.987838 -13.722015 -32.539435 56.516001 -55.307531 31.458879 31.489296 -23.302570 29.861434 0.000000 0.000000 0.000000 -7.125000 0.000000 0.000000 0.253648 -3.971446 0.270595 0.000000 0.000000 0.000000 -29.188349 -11.053771 45.013937 -45.954948 -51.227758 -22.980900 -7.802497 5.237558 26.009787 0.000000 0.000000 0.000000 7.125000 0.000000 0.000000 23.271986 54.646173 -5.747624
